<svg width="83" height="50" viewBox="0 0 83 50" fill="none" xmlns="http://www.w3.org/2000/svg">
<path d="M12.6128 1.65813C9.0196 2.27046 5.93325 4.4442 4.148 7.62829C3.5277 8.73048 2.9755 10.3225 2.75613 11.6467C2.74099 11.7538 2.71831 9.6566 2.71071 6.99299L2.70317 2.15565H1.49285H0.282501V25.5005V48.8453H1.49285H2.70317L2.71071 44.0385V39.2394L2.86204 39.936C3.05114 40.8697 3.4672 42.0485 3.91349 42.9517C5.99375 47.1537 10.4417 49.7638 15.0637 49.5035C20.6842 49.1897 25.2154 45.0871 26.1685 39.4767C26.2971 38.6883 26.3122 38.3439 26.282 37.1728C26.2366 35.6727 26.1079 34.9226 25.6995 33.6673C24.2168 29.1974 20.0639 25.9214 15.4495 25.5847L14.7687 25.5387L15.6764 25.4316C20.3741 24.9111 24.2244 21.7882 25.7071 17.3106C26.1836 15.8717 26.3274 14.7925 26.282 13.1392C26.2517 12.1671 26.1987 11.5548 26.0853 11.0497C25.0262 6.18932 21.2742 2.52304 16.5085 1.69641C15.4798 1.52036 13.5432 1.4974 12.6128 1.65813ZM16.3573 4.10743C18.203 4.49778 19.8218 5.38565 21.1608 6.74804C22.5072 8.10281 23.3696 9.72548 23.7781 11.6467C23.9672 12.5498 23.9748 14.4251 23.7856 15.3206C23.3772 17.2571 22.5753 18.7955 21.2515 20.1732C19.4133 22.0791 17.091 23.0665 14.4661 23.0665C12.8246 23.0665 11.41 22.7144 10.056 21.9719C5.77438 19.6451 3.89835 14.5246 5.66846 10.001C6.88638 6.87055 9.7004 4.57432 12.991 4.03088C13.8155 3.89311 15.5403 3.93138 16.3573 4.10743ZM3.27805 17.3948C4.82879 21.926 8.73213 24.9877 13.5583 25.4699L14.1635 25.5311L13.4449 25.5923C11.463 25.753 9.48102 26.4725 7.74119 27.6665C6.78806 28.3172 5.30536 29.8327 4.65484 30.82C3.77735 32.1441 3.19487 33.5755 2.85444 35.1828C2.71071 35.8717 2.71071 35.864 2.71071 25.5387V15.2058L2.86204 15.9023C2.93768 16.285 3.12678 16.9585 3.27805 17.3948Z" fill="#17776A"/>
<path d="M42.3794 1.58925C39.9436 1.9643 37.8331 2.92105 36.0478 4.48248C34.1718 6.11281 32.7497 8.60035 32.2277 11.1568L32.0915 11.838L32.0689 6.993L32.0537 2.15565H30.8434H29.6331V25.5005V48.8453H30.8434H32.0537L32.0689 44.0003L32.0915 39.1629L32.2277 39.8518C32.969 43.587 35.4729 46.8169 38.8619 48.409C43.272 50.4756 48.5218 49.603 52.0093 46.2123C54.2938 43.985 55.5037 41.3214 55.6931 38.0913C55.8445 35.5579 55.0348 32.7565 53.5147 30.5751C52.9092 29.7102 51.5705 28.3478 50.7004 27.7278C49.9288 27.1767 48.4915 26.4419 47.6141 26.151C46.8122 25.8832 45.7153 25.6612 44.8833 25.5923L44.1949 25.5311L45.0572 25.4316C47.1072 25.1943 48.8244 24.559 50.5189 23.4262C51.4797 22.7833 53.0452 21.1989 53.6808 20.2268C56.1014 16.5376 56.3741 11.9375 54.3992 8.04926C53.8095 6.87056 53.1813 6.00563 52.2134 5.02592C50.6021 3.38795 48.7563 2.36231 46.4264 1.79591C45.7456 1.63518 45.4203 1.60456 44.1192 1.5816C43.2871 1.56629 42.508 1.57395 42.3794 1.58925ZM32.4017 16.5452C33.3321 20.2115 36.0705 23.3191 39.5805 24.6892C40.5185 25.0565 41.3733 25.2632 42.5685 25.4239C43.3779 25.5311 43.4989 25.5617 43.151 25.5693C42.1751 25.5847 40.6395 25.9291 39.5275 26.3654C35.7982 27.8502 33.0371 31.1874 32.2429 35.1446C32.1748 35.5043 32.0991 35.8105 32.084 35.8258C32.0689 35.8411 32.0613 31.1951 32.0613 25.4928C32.0689 18.4817 32.0991 15.244 32.1445 15.4737C32.1899 15.665 32.3034 16.1472 32.4017 16.5452ZM45.3447 28.0646C47.3644 28.3937 49.0362 29.2663 50.5189 30.7741C52.3796 32.657 53.31 34.8996 53.31 37.5097C53.31 38.6424 53.1666 39.5686 52.8564 40.5177C51.7445 43.8702 48.9832 46.3041 45.5263 46.9624C44.6033 47.1384 42.977 47.1231 42.0314 46.9318C35.9797 45.6842 32.6967 39.14 35.2763 33.4683C35.8738 32.1518 37.1144 30.6363 38.3172 29.7638C39.4746 28.9218 40.9345 28.3018 42.2962 28.0722C43.1283 27.9268 44.4974 27.9268 45.3447 28.0646Z" fill="#17776A"/>
<path d="M68.9309 1.62753C65.0429 2.23219 61.7674 4.62791 60.0426 8.11814C59.6117 8.9907 59.1955 10.2001 58.9607 11.2487L58.802 11.9911L58.7793 30.4144L58.7566 48.8453H59.9672H61.1771V34.8154V20.7932L61.6086 21.2908C64.6648 24.8116 69.173 26.2506 73.5757 25.1101C75.8074 24.5284 77.6683 23.4033 79.3245 21.6199L80.0888 20.8009V34.8231V48.8453H81.2994H82.5094V31.1798C82.5094 20.4182 82.4793 13.1698 82.434 12.6264C82.2979 10.9654 81.9344 9.64133 81.216 8.16407C79.6347 4.91111 76.7226 2.62255 73.0915 1.7653C72.5546 1.64284 72.093 1.60457 70.8978 1.5816C70.066 1.56629 69.1809 1.5816 68.9309 1.62753ZM72.0323 4.0309C73.0461 4.19928 73.7645 4.42125 74.6122 4.82691C77.3202 6.13577 79.2038 8.50086 79.8768 11.4324C80.0134 12.0217 80.0435 12.3891 80.0435 13.5219C80.0509 14.7925 80.0361 14.9608 79.8314 15.7416C79.1204 18.5277 77.4262 20.7167 74.9978 21.9873C73.3183 22.8675 71.5708 23.2196 69.7859 23.0512C65.5045 22.6379 62.0775 19.4614 61.2905 15.1752C61.1397 14.3486 61.1397 12.7106 61.2905 11.8304C61.8428 8.631 64.1125 5.8143 67.1153 4.59729C68.6513 3.97732 70.4516 3.77066 72.0323 4.0309Z" fill="#17776A"/>
</svg>
